<svg xmlns="http://www.w3.org/2000/svg" version="1.1" viewBox="112.69 191.52 272.31 91.97">
<path d="M0 0 C0.68348007 -0.00029205 1.36696014 -0.00058411 2.07115173 -0.00088501 C4.31669071 0.00050161 6.56189247 0.01603091 8.80737305 0.03173828 C10.36964232 0.03547079 11.93191394 0.03831664 13.4941864 0.04031372 C17.59594239 0.04793143 21.6975556 0.06756382 25.79925537 0.08972168 C30.72604675 0.11382757 35.652886 0.12296997 40.57971954 0.1346283 C48.05544277 0.1539894 55.53085304 0.19232477 63.0065918 0.22705078 C63.0065918 14.41705078 63.0065918 28.60705078 63.0065918 43.22705078 C59.3765918 43.55705078 55.7465918 43.88705078 52.0065918 44.22705078 C53.8628418 45.43361328 53.8628418 45.43361328 55.7565918 46.66455078 C60.98855127 50.61634995 63.29812081 55.0205043 64.3815918 61.45361328 C64.75143865 67.99527953 62.9104606 74.90390681 58.5456543 79.89892578 C52.04371156 85.50973931 45.75518276 86.35691185 37.35864258 86.34057617 C36.05774689 86.34050064 34.7568512 86.34042511 33.41653442 86.34034729 C32.01165732 86.3352418 30.60678061 86.33002582 29.2019043 86.32470703 C27.75316415 86.32284001 26.30442338 86.32141745 24.85568237 86.32041931 C21.05812817 86.31661651 17.26061271 86.30680552 13.46307373 86.29571533 C8.89833375 86.28364594 4.33358075 86.27908831 -0.23117065 86.27326202 C-7.15194339 86.26359241 -14.07263123 86.24442027 -20.9934082 86.22705078 C-20.9934082 71.70705078 -20.9934082 57.18705078 -20.9934082 42.22705078 C-15.5484082 41.73205078 -15.5484082 41.73205078 -9.9934082 41.22705078 C-11.8496582 40.17517578 -11.8496582 40.17517578 -13.7434082 39.10205078 C-18.08510305 36.38945205 -21.03214373 33.36415039 -22.5715332 28.34033203 C-23.86561352 21.85794823 -23.64090953 15.84847155 -20.3293457 10.04736328 C-15.01956137 2.81239398 -8.90781255 -0.03210023 0 0 Z " fill="#000000" transform="translate(135.993408203125,194.77294921875)"/>
<path d="M0 0 C8.59927109 6.50121458 14.01792423 13.70416522 17.75 23.8125 C17.99621094 24.47894531 18.24242187 25.14539063 18.49609375 25.83203125 C22.09704075 37.62823694 19.51546038 49.61085662 14.5 60.53515625 C8.22322519 72.07229631 -1.82448506 78.8135879 -13.9375 83.125 C-26.69070948 85.77334794 -39.98543953 83.99276347 -51.0625 77.0625 C-52.48378269 76.0127775 -53.88051547 74.92895596 -55.25 73.8125 C-55.93707031 73.26078125 -56.62414062 72.7090625 -57.33203125 72.140625 C-64.46134198 65.76105058 -70.5819225 55.45069918 -71.42700195 45.78881836 C-71.87940134 30.01612106 -69.27975529 19.57604901 -60 6.6875 C-44.35925339 -9.66418964 -18.80363157 -12.26944093 0 0 Z " fill="#000000" transform="translate(350.25,199.1875)"/>
<path d="M0 0 C0.68128967 -0.00175232 1.36257935 -0.00350464 2.06451416 -0.00531006 C4.32688917 -0.00972789 6.58918663 -0.00679084 8.8515625 -0.00341797 C10.4171551 -0.00409103 11.9827476 -0.00506107 13.54833984 -0.00631714 C16.83366895 -0.00779402 20.11897092 -0.00563988 23.40429688 -0.00097656 C27.62476766 0.00472073 31.84517486 0.00144167 36.06564331 -0.00454903 C39.29972822 -0.00815491 42.53379795 -0.00701593 45.7678833 -0.00442123 C47.32448331 -0.00375204 48.88108468 -0.00458012 50.43768311 -0.00690079 C52.60953446 -0.00942777 54.78128146 -0.00558612 56.953125 0 C58.19143066 0.00079559 59.42973633 0.00159119 60.70556641 0.00241089 C63.4765625 0.12939453 63.4765625 0.12939453 64.4765625 1.12939453 C64.56431855 3.2749828 64.58351469 5.42343874 64.57421875 7.57080078 C64.56938477 9.52856445 64.56938477 9.52856445 64.56445312 11.52587891 C64.55609651 12.91455143 64.54763155 14.3032233 64.5390625 15.69189453 C64.53404916 17.08447109 64.52948597 18.47704935 64.52539062 19.86962891 C64.51355692 23.28956904 64.49562081 26.70948703 64.4765625 30.12939453 C58.5365625 30.12939453 52.5965625 30.12939453 46.4765625 30.12939453 C46.4765625 31.11939453 46.4765625 32.10939453 46.4765625 33.12939453 C52.4165625 33.12939453 58.3565625 33.12939453 64.4765625 33.12939453 C64.4765625 40.05939453 64.4765625 46.98939453 64.4765625 54.12939453 C58.5365625 54.12939453 52.5965625 54.12939453 46.4765625 54.12939453 C46.4765625 55.11939453 46.4765625 56.10939453 46.4765625 57.12939453 C52.4165625 57.12939453 58.3565625 57.12939453 64.4765625 57.12939453 C64.4765625 66.69939453 64.4765625 76.26939453 64.4765625 86.12939453 C40.7165625 86.12939453 16.9565625 86.12939453 -7.5234375 86.12939453 C-7.56354631 64.95639974 -7.56354631 64.95639974 -7.57226562 55.96337891 C-7.57825421 49.81582786 -7.5853549 43.66829164 -7.59887695 37.52075195 C-7.60970537 32.56708043 -7.61571424 27.6134248 -7.61831474 22.65974236 C-7.62016907 20.76541837 -7.62378984 18.87109529 -7.62916756 16.97677803 C-7.63637739 14.33305067 -7.63742847 11.68938983 -7.63696289 9.0456543 C-7.64055817 8.2544368 -7.64415344 7.4632193 -7.64785767 6.64802551 C-7.63441556 -0.35900356 -6.83568473 0.00439183 0 0 Z " fill="#000000" transform="translate(210.5234375,193.87060546875)"/>
<path d="M0 0 C5.94 0 11.88 0 18 0 C18 5.94 18 11.88 18 18 C12.06 18 6.12 18 0 18 C0 12.06 0 6.12 0 0 Z " fill="#010101" transform="translate(367,264)"/>
</svg>